<?xml version="1.0" encoding="utf-8"?>
<svg viewBox="0 0 131.473 30.694" fill="none" xmlns="http://www.w3.org/2000/svg">
  <path fill-rule="evenodd" clip-rule="evenodd" d="M 10.131 5.423 L 10.131 18.71 C 10.131 19.262 10.579 19.71 11.131 19.71 C 11.683 19.71 12.131 19.262 12.131 18.71 L 12.131 5.423 L 14.424 7.716 C 14.814 8.107 15.448 8.107 15.838 7.716 C 16.229 7.326 16.229 6.692 15.838 6.302 L 11.838 2.302 C 11.448 1.911 10.814 1.911 10.424 2.302 L 6.424 6.302 C 6.033 6.692 6.033 7.326 6.424 7.716 C 6.814 8.107 7.448 8.107 7.838 7.716 L 10.131 5.423 Z" fill="#000000"/>
  <path fill-rule="evenodd" clip-rule="evenodd" d="M 3.131 9.009 C 3.131 9.009 2.578 9.086 2.384 9.407 C 2.129 9.828 2.131 11.009 2.131 11.009 L 2.131 22.009 C 2.131 23.666 3.474 25.009 5.131 25.009 L 17.131 25.009 C 18.788 25.009 20.131 23.666 20.131 22.009 L 20.131 11.009 C 20.131 11.009 20.211 9.722 19.835 9.269 C 19.675 9.077 19.131 9.009 19.131 9.009 C 18.579 9.009 18.131 9.457 18.131 10.009 L 18.131 22.009 C 18.131 22.561 17.683 23.009 17.131 23.009 L 5.131 23.009 C 4.579 23.009 4.131 22.561 4.131 22.009 L 4.131 10.009 C 4.131 9.457 3.683 9.009 3.131 9.009 Z" fill="#000000"/>
  <path fill-rule="evenodd" clip-rule="evenodd" d="M 25.187 10.004 C 25.187 10.004 24.634 10.081 24.44 10.402 C 24.185 10.823 24.187 12.004 24.187 12.004 L 24.187 23.004 C 24.187 24.661 25.53 26.004 27.187 26.004 L 39.187 26.004 C 40.844 26.004 42.187 24.661 42.187 23.004 L 42.187 12.004 C 42.187 12.004 42.267 10.717 41.891 10.264 C 41.731 10.072 41.187 10.004 41.187 10.004 C 40.635 10.004 40.773 10.219 40.416 10.468 C 40.416 10.468 40.13 9.641 39.819 9.359 C 39.461 9.034 38.48 8.797 38.48 8.797 L 38.381 16.114 L 39.617 15.798 L 40.211 14.999 L 40.187 23.004 C 40.187 23.556 39.739 24.004 39.187 24.004 L 27.187 24.004 C 26.635 24.004 26.187 23.556 26.187 23.004 L 26.187 16.91 L 26.188 14.923 L 27.046 15.913 L 28.011 16.146 C 28.011 16.146 28.072 10.521 28.025 8.792 C 28.02 8.6 27.15 8.974 26.812 9.243 C 26.436 9.542 26.048 10.492 26.018 10.448 C 25.839 10.181 25.533 10.004 25.187 10.004 Z" fill="#000000" style="stroke-width: 1; transform-box: fill-box; transform-origin: 50% 50%;" transform="matrix(-1, 0, 0, -1, -0.000001, 0.000004)"/>
  <text style="fill: rgb(0, 0, 0); font-family: &quot;IBM Plex Mono&quot;; font-size: 29px; white-space: pre;" x="43.893" y="24.007">ar iv</text>
  <text style="fill: rgb(0, 0, 0); font-family: &quot;IBM Plex Mono&quot;; font-size: 38px; white-space: pre;" x="53.021" y="28.641"> X</text>
</svg>